<svg width="0" height="0" class="hidden">
  <symbol xmlns="http://www.w3.org/2000/svg" viewBox="0 0 10540 10540" id="logo"><g fill="rgb(35,27,29)"><g><path d="M7205 10509 c-22 -12 -66 -42 -97 -67 l-57 -45 -145 13 c-212 17 -351 -4 -446 -68 -107 -73 -132 -182 -70 -308 46 -93 113 -139 241 -166 32 -6 59 -17 59 -24 0 -7 -16 -46 -36 -87 -22 -47 -44 -116 -57 -184 -12 -59 -23 -110 -24 -112 -2 -3 -10 4 -18 15 -7 11 -56 55 -107 97 -86 71 -148 116 -383 279 -97 66 -433 234 -580 289 -49 18 -92 36 -95 39 -11 13 -331 102 -450 125 -636 123 -1316 125 -1895 5 -204 -42 -382 -91 -460 -126 -16 -7 -91 -36 -165 -63 -230 -84 -481 -197 -590 -266 -164 -105 -363 -241 -425 -290 -38 -30 -137 -120 -219 -198 -301 -286 -538 -632 -715 -1043 -141 -328 -227 -652 -281 -1054 -43 -317 -38 -897 11 -1310 158 -1339 625 -2671 1311 -3738 54 -84 98 -155 98 -158 0 -2 42 -62 93 -132 51 -70 108 -149 126 -177 19 -27 81 -107 140 -178 58 -70 123 -149 144 -175 86 -105 431 -443 572 -560 83 -68 168 -139 190 -158 71 -62 462 -301 605 -369 127 -61 338 -141 485 -183 216 -63 377 -91 583 -103 390 -24 699 31 1018 180 87 41 250 136 256 149 2 4 32 29 68 56 247 186 464 435 724 831 40 61 85 133 100 160 16 28 58 102 94 165 203 358 417 883 577 1415 55 185 185 696 185 730 0 37 17 -1 63 -136 163 -483 379 -867 637 -1129 83 -84 119 -113 172 -139 220 -104 399 -31 476 194 38 115 47 175 46 345 -1 169 -17 309 -55 489 -11 53 -22 110 -25 126 -4 27 -4 28 8 11 37 -54 222 -308 255 -350 65 -83 333 -348 425 -419 211 -164 349 -227 501 -227 144 0 237 63 288 193 42 107 31 405 -21 592 -99 352 -222 626 -444 990 -97 158 -278 385 -426 535 -85 86 -177 173 -203 194 -27 21 -51 44 -54 51 -2 7 27 53 65 102 200 254 301 512 327 838 23 296 -93 656 -291 903 -146 182 -268 283 -440 364 -46 21 -84 41 -84 44 0 3 16 57 35 122 65 222 157 482 305 862 165 426 261 694 290 806 l10 41 76 -39 c73 -36 80 -38 175 -38 158 0 267 45 358 147 164 184 187 444 61 699 -73 150 -242 299 -388 344 -198 61 -417 40 -499 -48 l-22 -24 -48 47 c-129 125 -272 192 -628 291 l-100 28 -585 3 c-583 3 -585 3 -625 -18z m855 -70 c69 -6 134 -15 145 -19 11 -5 40 -12 65 -15 112 -16 381 -94 544 -158 66 -25 92 -43 162 -110 98 -93 154 -173 229 -329 90 -186 120 -344 95 -495 -29 -184 -62 -285 -218 -674 -153 -382 -289 -749 -388 -1046 -118 -355 -116 -371 42 -447 247 -119 454 -316 571 -543 243 -470 152 -1034 -231 -1441 -65 -68 -66 -70 -66 -125 l0 -56 88 -72 c187 -155 429 -421 575 -632 326 -471 571 -1118 542 -1432 -13 -136 -73 -214 -156 -201 -136 22 -398 208 -615 438 -379 400 -787 1055 -950 1521 -44 127 -52 137 -118 137 -80 0 -96 -17 -96 -99 0 -113 40 -219 221 -591 124 -256 156 -345 213 -602 35 -154 53 -278 67 -460 23 -281 -29 -505 -127 -550 -39 -18 -139 38 -231 130 -249 246 -505 689 -661 1142 -89 260 -142 550 -142 783 0 166 -9 191 -73 207 -274 71 -450 147 -622 268 -362 256 -574 625 -615 1070 -22 246 50 511 190 697 152 202 370 342 704 451 174 58 196 73 196 140 0 39 -8 60 -50 125 -54 85 -156 280 -208 397 l-32 73 33 -6 c102 -20 184 -38 202 -46 11 -4 49 -18 85 -30 36 -12 95 -37 131 -55 82 -43 138 -46 174 -9 35 34 34 93 -2 135 -42 50 -218 121 -396 159 -171 37 -286 44 -557 37 -300 -8 -334 -2 -394 64 -40 45 -42 55 -22 105 48 114 203 220 396 270 190 50 453 60 635 25 108 -21 256 -72 334 -116 60 -33 153 -34 175 -2 18 25 21 74 6 112 -15 41 -183 126 -316 161 -164 43 -427 62 -628 46 -76 -7 -141 -9 -144 -7 -10 10 -50 194 -68 311 -24 157 -24 365 -1 459 21 82 80 211 130 285 27 38 37 64 37 91 0 58 -19 70 -104 70 -133 0 -242 44 -286 115 -27 43 -25 67 6 104 38 45 105 62 270 68 l141 5 7 -73 c10 -106 40 -165 116 -228 68 -57 101 -73 183 -92 l56 -12 -15 -36 c-28 -66 -54 -195 -54 -266 0 -218 79 -416 230 -578 174 -186 399 -277 685 -277 99 0 127 3 139 16 21 20 22 127 2 147 -10 9 -51 16 -128 20 -135 8 -222 31 -343 91 -145 72 -242 166 -313 304 -70 135 -91 255 -62 362 14 54 68 155 116 218 28 37 34 54 34 93 0 64 -16 79 -88 79 -144 0 -276 44 -337 111 -39 43 -42 61 -20 107 30 59 106 111 211 146 129 42 437 58 694 35z m-3695 -228 c33 -5 128 -17 210 -26 83 -9 166 -20 185 -25 19 -5 109 -27 201 -49 160 -39 392 -113 474 -150 22 -10 68 -31 103 -45 72 -31 274 -134 332 -171 22 -14 42 -25 44 -25 8 0 191 -125 258 -176 113 -86 221 -180 294 -256 l71 -73 12 -128 c7 -70 15 -135 18 -144 5 -12 2 -15 -13 -11 -23 7 -356 134 -399 152 -37 16 -114 46 -503 192 -338 127 -367 133 -424 87 -92 -76 -300 -274 -648 -620 l-386 -383 -545 184 c-301 100 -550 185 -555 188 -5 3 -22 8 -39 12 -16 4 -84 24 -150 45 -66 21 -199 64 -295 94 -215 69 -535 167 -694 214 -103 30 -128 33 -183 27 l-64 -6 -216 -227 c-229 -239 -816 -816 -845 -832 -16 -9 -16 -5 3 43 241 612 579 1051 1089 1415 480 342 1154 586 1850 668 275 32 686 45 815 26z m5250 -103 c68 -17 157 -68 215 -124 31 -30 60 -51 64 -46 4 4 6 2 5 -3 -2 -6 13 -35 34 -65 46 -70 87 -168 94 -231 6 -49 27 -67 36 -31 3 9 5 -8 5 -38 0 -30 -2 -47 -5 -37 -9 36 -30 17 -36 -34 -8 -66 -45 -146 -92 -197 -22 -25 -35 -48 -32 -59 3 -14 14 -7 58 37 57 58 50 41 -10 -23 -38 -41 -106 -80 -156 -90 l-30 -6 29 13 c43 20 21 24 -87 18 -85 -4 -96 -7 -85 -20 11 -13 9 -14 -12 -7 -48 14 -128 56 -141 72 -10 12 -3 11 24 -6 37 -23 37 -23 37 -2 0 12 -6 21 -14 21 -17 0 -26 22 -26 65 0 37 -16 56 -23 28 -3 -10 -5 18 -5 62 0 44 2 72 5 62 9 -34 23 -5 23 46 -1 111 -54 296 -131 449 -37 76 -45 99 -35 107 25 21 92 44 146 51 56 7 75 5 145 -12z m-4130 -978 c44 -17 109 -42 145 -54 136 -49 216 -78 235 -87 11 -5 49 -20 85 -33 36 -13 144 -53 240 -90 96 -36 180 -66 185 -66 6 0 21 -6 35 -13 14 -7 62 -26 108 -42 76 -27 103 -45 68 -45 -8 0 -60 -23 -116 -51 -189 -95 -297 -233 -308 -394 -9 -143 43 -237 158 -289 87 -39 162 -48 373 -44 l188 3 73 -170 c40 -93 98 -217 129 -274 31 -58 56 -105 54 -106 -1 -1 -58 -21 -127 -45 -69 -23 -148 -53 -176 -65 l-51 -23 -49 38 c-205 155 -513 379 -624 453 -32 22 -108 22 -140 0 -99 -68 -455 -414 -641 -623 -135 -152 -276 -326 -425 -528 -81 -108 -151 -201 -155 -206 -4 -4 -27 3 -51 17 -23 14 -113 64 -198 112 -524 296 -895 540 -1242 817 -171 136 -548 456 -693 587 -98 88 -101 90 -150 90 -58 1 -62 -1 -101 -54 -16 -22 -83 -107 -150 -190 -66 -82 -255 -321 -419 -530 -269 -343 -651 -820 -722 -902 l-28 -32 -160 68 c-88 37 -223 94 -300 126 -77 32 -148 67 -157 78 -15 16 -18 40 -18 167 0 260 31 538 90 809 27 126 32 138 62 161 230 177 830 751 1191 1139 l96 104 73 -23 c40 -12 105 -33 143 -45 39 -13 117 -37 175 -55 101 -30 646 -204 740 -236 25 -8 108 -35 185 -60 77 -24 154 -49 170 -55 17 -6 62 -21 100 -34 39 -12 77 -25 85 -28 8 -4 78 -27 155 -52 77 -25 147 -50 156 -55 9 -5 34 -12 55 -16 22 -3 44 -10 49 -14 6 -4 28 -13 50 -19 22 -7 49 -16 60 -21 86 -38 173 -60 233 -60 l67 0 513 509 513 510 42 -14 c23 -7 78 -27 122 -45z m-2932 -1472 c110 -99 251 -219 293 -248 12 -8 68 -55 125 -105 89 -77 152 -128 349 -283 19 -15 59 -45 90 -66 53 -38 78 -55 253 -177 42 -30 85 -58 95 -64 9 -5 37 -23 62 -40 25 -16 54 -35 65 -42 27 -16 150 -92 194 -120 20 -13 43 -26 51 -30 8 -5 67 -39 130 -77 63 -38 150 -87 193 -110 43 -23 86 -45 95 -51 140 -82 172 -95 232 -95 l61 0 120 163 c354 480 486 635 822 970 137 136 253 247 257 247 12 0 170 -112 400 -285 19 -15 60 -45 90 -67 30 -22 55 -44 55 -47 0 -4 -27 -30 -60 -58 -200 -166 -328 -373 -388 -627 -19 -80 -21 -120 -21 -331 0 -132 5 -261 11 -288 l11 -47 -34 25 c-43 33 -94 33 -153 -2 -102 -58 -385 -265 -581 -423 -342 -276 -861 -791 -1182 -1173 l-24 -29 -145 204 c-81 112 -229 325 -329 473 -306 450 -401 589 -423 613 -16 17 -31 22 -72 22 l-52 0 -260 -262 c-233 -237 -943 -962 -1182 -1210 l-93 -97 -91 77 c-49 42 -129 111 -176 152 -47 41 -138 118 -201 171 -63 53 -200 172 -305 264 l-190 167 -27 94 c-64 224 -128 537 -173 847 -30 208 -67 568 -63 607 l3 28 60 -24 c33 -14 69 -29 80 -33 43 -18 73 -31 136 -60 37 -17 72 -31 78 -31 11 0 20 -4 76 -33 17 -8 47 -18 68 -22 20 -4 40 -11 43 -16 3 -5 40 -9 83 -9 76 0 77 0 113 38 144 150 829 1001 1263 1569 22 28 44 52 48 52 5 1 59 -45 120 -101z m3591 -2135 c100 -74 109 -83 157 -168 75 -131 152 -236 252 -341 88 -93 216 -204 234 -204 5 0 20 -11 33 -25 13 -14 27 -25 31 -25 5 0 27 -13 51 -29 72 -48 273 -140 325 -148 18 -3 36 -10 39 -14 3 -5 15 -9 28 -9 12 0 26 -4 32 -10 5 -5 27 -13 49 -18 l40 -8 7 -109 c4 -61 12 -155 18 -211 13 -120 3 -178 -90 -560 -70 -287 -179 -673 -196 -693 -2 -2 -61 39 -131 91 -379 279 -726 507 -994 652 -90 48 -147 59 -192 34 -91 -48 -500 -446 -711 -693 -166 -193 -356 -431 -538 -672 l-146 -192 -104 112 c-208 224 -663 741 -902 1027 -76 91 -167 198 -203 238 l-65 73 -56 -3 -57 -3 -125 -177 c-69 -98 -194 -276 -279 -395 -85 -120 -254 -360 -376 -533 -121 -173 -252 -359 -290 -413 l-70 -97 -18 22 c-41 51 -289 432 -364 558 -295 498 -568 1105 -726 1610 -67 213 -63 198 -41 180 47 -38 255 -218 404 -350 90 -80 210 -187 268 -237 l104 -93 67 0 67 0 260 268 c423 438 1238 1267 1246 1267 4 0 104 -144 224 -320 309 -456 613 -882 682 -957 22 -24 33 -28 82 -28 l56 0 89 107 c187 224 306 355 525 577 256 260 459 447 675 622 220 177 488 373 511 374 6 0 59 -35 118 -77z m-59 -2091 c44 -25 172 -107 285 -182 261 -173 291 -194 370 -252 36 -26 85 -63 110 -80 104 -75 230 -181 230 -193 0 -8 -28 -89 -63 -182 -255 -676 -576 -1248 -923 -1643 -150 -171 -279 -287 -445 -402 -219 -151 -416 -226 -700 -268 -143 -21 -303 -25 -409 -10 -36 5 -99 14 -140 20 -308 42 -661 161 -937 314 -182 101 -409 251 -542 359 -230 186 -484 434 -673 658 -167 197 -204 248 -192 265 5 7 81 116 170 241 88 126 207 296 264 378 57 83 179 254 270 380 91 127 210 294 265 373 l100 144 25 -29 c14 -16 77 -92 140 -169 224 -271 424 -500 983 -1122 l118 -132 58 0 c50 0 61 3 73 23 33 49 427 560 557 721 268 331 547 634 745 807 l88 77 47 -25 c25 -14 82 -46 126 -71z"></path><path d="M7625 6591 c-23 -10 -52 -32 -66 -48 l-25 -30 -30 21 c-22 16 -47 22 -107 25 -42 2 -93 0 -111 -3 -47 -9 -124 -80 -152 -141 -26 -55 -32 -143 -12 -163 16 -16 133 -16 145 1 5 6 15 31 21 54 8 25 26 53 48 72 l35 31 30 -21 c16 -11 47 -53 69 -94 43 -77 56 -85 143 -85 24 0 27 4 27 34 0 109 39 186 102 201 28 7 39 -1 118 -92 23 -28 93 -32 128 -7 30 21 31 102 2 149 -23 37 -83 81 -137 101 -57 20 -179 17 -228 -5z"></path><path d="M8490 6110 c-14 -14 -20 -33 -20 -63 0 -95 -62 -214 -121 -232 -45 -15 -125 63 -161 157 -29 77 -42 88 -103 88 -68 0 -79 -13 -73 -88 8 -109 99 -247 193 -292 39 -19 59 -21 148 -18 95 3 107 5 140 31 83 63 134 174 144 313 5 74 4 83 -16 103 -29 29 -103 29 -131 1z"></path><path d="M7232 5943 c-5 -10 -13 -43 -17 -73 -14 -101 -54 -179 -111 -216 -22 -15 -26 -15 -67 9 -49 29 -82 75 -116 160 -26 64 -42 77 -96 77 -63 0 -75 -13 -75 -78 0 -66 39 -159 96 -229 57 -69 139 -103 253 -103 118 0 177 45 241 183 39 82 59 211 39 253 -13 27 -19 29 -76 32 -51 2 -63 0 -71 -15z"></path></g></g><g fill="rgb(31,96,195)"><g><path d="M3770 10239 c-262 -19 -674 -80 -698 -104 -3 -3 -1 -14 5 -23 13 -21 64 -21 310 -4 227 16 373 15 573 -3 691 -63 1145 -184 1624 -433 348 -181 743 -476 912 -682 45 -54 64 -70 84 -70 l26 0 -12 72 c-7 39 -15 113 -19 162 l-7 91 -71 73 c-74 76 -183 171 -295 256 -67 51 -250 176 -258 176 -2 0 -22 11 -44 25 -58 37 -260 140 -332 171 -35 14 -81 35 -103 45 -82 37 -314 111 -474 150 -92 22 -182 44 -201 49 -19 5 -102 16 -185 25 -82 9 -177 21 -210 26 -72 11 -463 9 -625 -2z"></path></g></g><g fill="rgb(66,180,100)"><g><path d="M4784 8715 c-497 -493 -521 -515 -556 -515 -32 0 -137 31 -203 60 -11 5 -38 14 -60 21 -22 6 -44 15 -50 19 -5 4 -27 11 -49 14 -21 4 -46 11 -55 16 -9 5 -79 30 -156 55 -77 25 -147 48 -155 52 -8 3 -46 16 -85 28 -38 13 -83 28 -100 34 -16 6 -93 31 -170 55 -77 25 -160 52 -185 60 -94 32 -639 206 -740 236 -58 18 -136 42 -175 55 -137 45 -240 75 -256 75 -8 0 -49 -37 -90 -82 -128 -143 -586 -603 -774 -778 -166 -155 -364 -329 -443 -390 -30 -23 -35 -35 -62 -161 -61 -281 -90 -548 -90 -839 0 -155 2 -180 18 -197 9 -11 80 -46 157 -78 77 -32 218 -92 314 -132 96 -40 179 -73 186 -73 19 0 245 276 770 945 164 209 353 448 419 530 67 83 134 168 150 190 57 77 69 75 191 -36 55 -50 200 -176 323 -280 634 -539 927 -739 1818 -1240 28 -16 60 -29 71 -29 14 0 65 60 176 209 179 241 354 453 519 631 242 261 534 534 585 546 14 4 34 -1 51 -11 76 -49 365 -259 628 -457 28 -21 61 -38 73 -38 13 0 73 20 134 44 62 24 149 56 195 71 45 14 82 31 82 36 0 5 -32 69 -72 142 -39 72 -102 204 -139 292 l-68 160 -188 -3 c-211 -4 -286 5 -373 44 -200 89 -210 319 -22 503 69 68 198 145 291 172 84 25 67 54 -62 100 -51 18 -103 39 -117 46 -14 7 -29 13 -35 13 -5 0 -89 30 -185 66 -96 37 -204 77 -240 90 -36 13 -74 28 -85 33 -19 9 -99 38 -235 87 -36 12 -101 37 -145 54 -104 41 -187 69 -201 70 -6 0 -245 -232 -530 -515z"></path></g></g><g fill="rgb(238,57,57)"><g><path d="M5887 5560 c-542 -379 -1102 -904 -1602 -1503 -124 -148 -120 -149 -267 48 -137 184 -342 477 -587 838 l-243 357 -276 -282 c-152 -156 -405 -414 -562 -573 -157 -160 -379 -388 -494 -508 -199 -206 -212 -217 -247 -217 -40 0 -12 -23 -409 330 -90 80 -216 190 -279 244 -64 55 -143 123 -175 153 -53 48 -87 68 -72 44 3 -5 30 -92 60 -193 206 -695 537 -1404 954 -2043 136 -208 214 -315 229 -312 12 2 29 24 378 522 127 182 301 428 386 548 85 119 210 297 279 395 102 144 130 178 151 180 30 4 62 -29 295 -308 308 -368 1016 -1166 1036 -1169 4 -1 76 90 160 201 191 253 387 499 554 693 236 276 661 684 729 701 66 16 674 -368 1169 -738 65 -49 119 -88 121 -86 3 4 77 250 115 381 44 153 145 571 171 707 21 108 21 123 9 245 -7 72 -14 174 -16 228 -2 54 -6 103 -9 108 -4 5 -16 9 -28 9 -12 0 -35 7 -51 15 -15 8 -37 15 -47 15 -10 0 -20 4 -23 9 -3 4 -21 11 -39 14 -52 8 -253 100 -325 148 -24 16 -46 29 -51 29 -4 0 -18 11 -31 25 -13 14 -28 25 -33 25 -18 0 -146 111 -234 204 -100 105 -178 210 -252 342 -50 88 -56 93 -172 177 -65 48 -125 87 -132 87 -6 0 -69 -41 -140 -90z"></path></g></g><g fill="rgb(47,132,238)"><g><path d="M2984 10119 c-123 -30 -146 -38 -139 -49 3 -5 -28 -13 -67 -20 -146 -22 -411 -118 -653 -235 -496 -240 -932 -612 -1208 -1032 -82 -125 -170 -280 -231 -408 -51 -106 -152 -357 -158 -390 -7 -41 32 -25 114 47 128 113 599 578 840 829 256 267 233 256 413 203 152 -44 476 -144 685 -211 296 -94 414 -131 440 -138 14 -3 34 -10 45 -15 11 -5 273 -93 582 -197 l562 -188 393 391 c417 414 659 641 693 650 18 4 665 -231 830 -302 29 -12 265 -102 395 -150 91 -34 94 -33 85 22 -3 26 -11 56 -16 68 -8 17 -9 15 -5 -11 3 -18 4 -33 3 -33 -2 0 -29 32 -61 70 -169 206 -564 501 -912 682 -491 255 -960 377 -1689 439 -153 13 -546 7 -699 -11 -92 -11 -140 -6 -101 10 40 17 -29 7 -141 -21z"></path><path d="M5830 3514 c-196 -168 -513 -509 -781 -840 -130 -162 -524 -673 -557 -721 -9 -15 -24 -23 -43 -23 -29 0 -26 -3 -359 369 -52 58 -148 167 -215 241 -227 254 -453 518 -634 740 -52 63 -99 121 -106 128 -10 11 -34 -17 -126 -150 -62 -89 -188 -266 -279 -393 -91 -126 -213 -297 -270 -380 -184 -266 -383 -549 -426 -606 l-43 -56 61 -79 c237 -308 543 -622 839 -861 133 -108 360 -258 542 -359 276 -153 629 -272 937 -314 41 -6 104 -15 140 -20 111 -16 324 -11 469 10 284 42 481 117 700 268 166 115 295 231 445 402 357 406 691 1008 946 1707 l62 168 -49 43 c-51 45 -210 168 -278 214 -22 16 -71 51 -110 78 -281 202 -747 491 -790 490 -5 0 -39 -26 -75 -56z m-3002 -1770 c12 -8 48 -48 79 -87 176 -221 510 -506 710 -605 21 -10 70 -35 108 -55 102 -53 178 -85 285 -122 221 -77 237 -86 270 -159 23 -50 11 -89 -39 -121 -53 -36 -102 -39 -211 -17 -321 67 -692 292 -996 603 -173 178 -305 371 -320 470 -5 31 -1 41 26 72 35 41 54 45 88 21z"></path></g></g><g fill="rgb(255,212,62)"><g><path d="M2248 7598 c-96 -123 -205 -263 -243 -313 -220 -286 -784 -977 -909 -1112 -35 -39 -43 -43 -87 -43 -26 0 -50 4 -53 9 -3 5 -23 12 -43 16 -21 4 -51 14 -68 22 -56 29 -65 33 -76 33 -6 0 -41 14 -78 31 -36 17 -75 34 -86 39 -11 4 -36 15 -57 24 -20 9 -39 16 -42 16 -4 0 -41 16 -82 36 -42 20 -78 34 -80 31 -8 -7 24 -357 52 -577 44 -352 112 -707 186 -971 l33 -117 190 -167 c105 -92 242 -211 305 -264 63 -53 154 -130 201 -171 199 -174 269 -229 291 -235 20 -5 55 27 268 247 631 651 1286 1314 1308 1323 15 6 29 6 40 -1 19 -12 140 -184 429 -610 245 -361 482 -693 506 -708 21 -13 12 -22 207 205 237 275 764 786 1040 1009 205 165 489 372 585 425 l50 28 59 -42 c91 -63 96 -59 73 47 -16 70 -20 129 -21 302 0 239 11 316 73 476 69 178 215 368 374 488 76 57 77 53 -23 126 -36 27 -81 60 -100 75 -119 89 -255 189 -333 243 -84 60 -91 63 -115 50 -44 -23 -512 -497 -644 -650 -128 -151 -233 -286 -447 -575 -110 -149 -123 -163 -151 -163 -26 0 -97 34 -202 95 -9 6 -52 28 -95 51 -43 23 -130 72 -193 110 -63 38 -122 72 -130 77 -8 4 -31 17 -51 30 -44 28 -167 104 -194 120 -11 7 -40 26 -65 42 -25 17 -53 35 -62 40 -10 6 -53 34 -95 64 -175 122 -200 139 -253 177 -31 21 -71 51 -90 66 -197 155 -260 206 -349 283 -57 50 -113 97 -125 105 -41 28 -182 148 -310 264 -72 64 -133 116 -137 116 -4 0 -85 -100 -181 -222z"></path></g></g><g fill="rgb(240,158,134)"><g><path d="M8542 6615 c-68 -19 -111 -42 -159 -86 -46 -42 -63 -82 -63 -152 0 -77 19 -127 67 -176 37 -38 54 -46 121 -62 122 -30 232 -21 316 25 21 11 47 25 57 31 10 5 32 36 48 69 25 47 31 71 31 122 0 66 -21 136 -50 163 -70 69 -242 99 -368 66z"></path><path d="M6565 6379 c-145 -23 -225 -123 -225 -279 1 -137 83 -210 238 -210 98 0 184 22 240 60 23 17 47 30 52 30 6 0 10 5 10 11 0 6 12 26 26 45 25 32 26 40 22 112 -7 108 -39 168 -108 200 -48 22 -143 43 -185 41 -11 -1 -42 -5 -70 -10z"></path><path d="M7500 6266 c0 -16 -11 -32 -29 -45 -50 -36 -73 -83 -69 -142 3 -44 8 -55 31 -73 62 -46 284 -28 322 26 20 30 20 121 0 138 -8 7 -15 19 -15 26 0 8 -6 14 -14 14 -7 0 -19 7 -26 16 -8 8 -31 24 -52 34 -37 18 -38 18 -38 -1 0 -15 -5 -18 -32 -13 -18 4 -39 15 -47 25 -19 26 -31 24 -31 -5z"></path><path d="M8713 4804 l-93 -46 0 -47 c0 -104 206 -561 391 -867 27 -45 49 -86 49 -92 0 -6 4 -12 8 -14 11 -4 152 -214 152 -225 0 -5 9 -14 20 -21 11 -7 20 -19 20 -27 0 -8 5 -15 10 -15 6 0 15 -11 20 -25 5 -14 14 -25 20 -25 5 0 10 -6 10 -14 0 -7 14 -23 30 -36 17 -13 30 -28 30 -35 0 -14 124 -135 139 -135 6 0 11 -5 11 -10 0 -15 115 -97 184 -132 70 -35 159 -47 206 -28 91 38 55 264 -93 573 -72 150 -165 320 -178 325 -5 2 -9 10 -9 17 0 8 -6 20 -12 27 -7 7 -21 29 -31 48 -28 55 -41 75 -60 94 -9 10 -17 24 -17 32 0 8 -4 14 -10 14 -5 0 -10 7 -10 15 0 8 -4 15 -10 15 -5 0 -10 4 -10 9 0 5 -9 20 -20 33 -11 12 -60 77 -109 143 -106 144 -246 300 -369 413 -84 77 -93 82 -134 82 -30 -1 -70 -14 -135 -46z"></path><path d="M8030 4609 c-30 -5 -106 -9 -168 -10 l-114 -2 7 -91 c17 -234 80 -548 150 -746 14 -41 40 -115 56 -165 17 -49 34 -92 38 -95 4 -3 11 -18 15 -34 4 -15 33 -83 65 -151 114 -239 234 -418 321 -476 35 -24 54 -29 100 -29 69 0 104 23 120 78 14 53 12 301 -4 409 -21 137 -73 349 -106 428 -4 11 -13 40 -20 65 -7 25 -21 64 -31 87 -10 23 -19 49 -19 58 0 8 -4 24 -10 35 -5 11 -14 29 -20 40 -5 11 -10 25 -10 32 0 7 -7 27 -16 43 -19 36 -179 440 -197 496 -12 38 -13 39 -57 38 -25 -1 -70 -5 -100 -10z"></path></g></g><g fill="rgb(255,243,222)"><g><path d="M7481 10464 c-146 -21 -238 -56 -305 -115 -47 -40 -66 -82 -66 -141 0 -44 2 -48 25 -48 13 0 42 6 62 14 62 24 278 73 419 95 146 23 294 26 504 11 244 -18 620 -91 776 -150 102 -39 157 -49 168 -31 3 5 -28 40 -68 79 -60 55 -90 75 -153 99 -162 64 -432 142 -543 158 -25 3 -54 10 -65 15 -69 29 -583 39 -754 14z"></path><path d="M6621 10285 c-70 -16 -103 -34 -126 -69 -28 -42 -29 -87 -3 -135 45 -84 150 -131 294 -131 53 0 77 -4 88 -16 22 -21 21 -24 -21 -85 -50 -74 -109 -203 -130 -285 -13 -51 -17 -111 -17 -234 -1 -178 16 -315 61 -504 l25 -108 39 6 c119 19 300 26 423 16 72 -5 141 -13 154 -16 39 -11 26 32 -31 104 -80 100 -114 154 -162 255 -74 156 -110 320 -93 417 14 78 41 125 122 210 75 78 136 178 113 184 -6 2 -38 9 -71 16 -84 17 -117 33 -186 91 -78 65 -110 127 -113 226 l-3 68 -150 2 c-97 1 -171 -3 -213 -12z"></path><path d="M9440 10150 c-55 -7 -128 -35 -164 -63 -19 -14 -19 -16 14 -78 19 -35 45 -86 59 -113 14 -27 31 -51 38 -53 7 -3 29 9 50 26 93 74 243 95 383 52 42 -12 91 -21 110 -19 l35 3 -73 77 c-84 87 -170 138 -273 163 -68 16 -92 16 -179 5z"></path><path d="M7060 7946 c0 -3 25 -64 56 -134 65 -147 137 -285 206 -393 54 -85 57 -100 28 -129 -47 -47 -22 -49 210 -15 324 46 778 17 993 -65 64 -24 137 -27 137 -5 0 8 -4 15 -10 15 -17 0 -41 60 -38 96 l3 36 -190 85 c-104 46 -314 136 -465 200 -151 63 -313 132 -360 153 -88 38 -193 83 -245 105 -74 30 -325 70 -325 51z"></path></g></g><g fill="rgb(255,255,255)"><g><path d="M7580 10299 c-222 -36 -470 -102 -470 -125 0 -24 62 -85 111 -110 63 -31 146 -50 234 -53 90 -3 104 -7 111 -37 5 -19 -1 -36 -25 -67 -47 -64 -102 -162 -118 -215 -64 -210 36 -489 237 -656 58 -47 205 -121 295 -146 39 -11 121 -23 183 -27 124 -7 142 -15 142 -63 0 -50 -21 -60 -125 -60 -254 0 -489 99 -655 277 -125 134 -198 287 -222 463 -13 99 -4 173 33 283 11 33 18 64 16 71 -6 17 -171 -149 -200 -202 -54 -99 -57 -215 -11 -391 41 -156 109 -287 233 -448 47 -60 61 -72 86 -73 47 -1 177 -36 257 -70 166 -69 217 -115 183 -166 -20 -31 -60 -31 -116 0 -78 44 -226 95 -334 116 -196 37 -519 24 -710 -29 -210 -59 -358 -173 -390 -299 -15 -59 -5 -95 37 -139 58 -59 102 -66 396 -58 388 11 612 -25 863 -138 51 -23 109 -75 109 -98 0 -14 -47 -59 -61 -59 -7 0 -42 15 -78 34 -36 18 -95 43 -131 55 -36 12 -73 26 -82 31 -10 6 -32 10 -49 10 -77 0 12 -43 641 -308 157 -66 368 -156 468 -201 101 -45 188 -83 193 -84 6 -1 48 111 93 248 100 298 236 666 388 1044 196 491 236 641 225 853 -7 142 -35 239 -116 403 -78 157 -152 258 -191 262 -14 1 -66 17 -116 37 -85 33 -307 83 -534 120 -238 40 -609 46 -800 15z"></path><path d="M9550 9965 c-72 -21 -132 -50 -158 -78 l-22 -23 29 -80 c49 -134 64 -224 65 -389 l1 -149 60 -31 c98 -49 119 -56 176 -54 156 3 295 110 340 262 30 97 23 252 -15 351 -36 96 -76 156 -101 155 -11 -1 -47 9 -80 21 -79 29 -219 36 -295 15z"></path><path d="M7645 7319 c-55 -5 -140 -16 -189 -24 -49 -9 -91 -13 -94 -10 -3 3 -15 -1 -26 -8 -12 -8 -86 -35 -166 -62 -277 -91 -451 -189 -598 -337 -173 -173 -262 -360 -292 -619 -22 -184 12 -434 86 -639 136 -379 442 -688 844 -853 76 -31 178 -64 307 -97 64 -16 73 -41 73 -207 0 -233 53 -523 142 -783 228 -662 665 -1280 906 -1280 39 0 50 5 82 39 145 152 129 695 -36 1276 -26 90 -64 181 -153 365 -211 432 -257 574 -199 614 30 21 61 20 81 -2 9 -10 32 -63 51 -119 74 -212 217 -497 391 -782 401 -655 947 -1181 1226 -1181 104 0 153 67 165 227 6 83 -8 262 -23 303 -4 8 -5 19 -4 23 3 15 -39 164 -78 278 -101 294 -263 614 -438 866 -146 211 -388 477 -575 632 -111 91 -112 98 -22 193 345 367 458 876 298 1346 -102 298 -334 552 -640 699 -55 26 -105 46 -112 45 -7 -2 -38 6 -68 17 -79 30 -280 68 -419 80 -139 12 -376 12 -520 0z m1081 -730 c59 -11 124 -40 154 -70 23 -22 50 -94 50 -133 0 -39 -55 -152 -79 -160 -9 -4 -34 -17 -55 -30 -22 -14 -68 -30 -102 -36 -53 -10 -75 -9 -145 6 -74 16 -88 23 -130 63 -87 86 -90 194 -7 269 49 45 92 68 160 87 66 17 80 18 154 4z m-903 -23 c83 -30 157 -103 157 -154 0 -28 -42 -56 -70 -47 -11 4 -32 24 -45 46 -37 57 -66 72 -126 67 -37 -4 -57 -12 -79 -33 -31 -30 -36 -45 -48 -147 -7 -52 -5 -68 4 -68 7 0 26 -11 42 -25 17 -14 34 -25 40 -25 5 0 12 -8 16 -17 3 -10 11 -26 18 -35 20 -28 -1 -70 -46 -92 -56 -27 -162 -32 -205 -9 -43 23 -56 43 -47 76 6 27 55 82 94 107 l23 15 -41 80 c-46 93 -89 135 -137 135 -44 0 -99 -49 -115 -103 -16 -57 -25 -67 -62 -67 -61 0 -70 34 -32 115 24 52 89 119 132 135 39 15 122 12 161 -7 19 -9 45 -31 56 -49 26 -40 33 -42 41 -10 24 95 159 151 269 112z m-1033 -248 c41 -18 55 -32 76 -71 14 -27 28 -71 31 -98 5 -42 2 -53 -21 -83 -14 -19 -26 -39 -26 -45 0 -6 -4 -11 -10 -11 -5 0 -29 -13 -52 -30 -50 -34 -141 -60 -213 -60 -93 1 -171 56 -196 141 -26 87 33 214 119 257 90 45 195 45 292 0z m1801 -239 c18 -18 20 -29 15 -73 -16 -123 -67 -226 -142 -282 -31 -24 -49 -29 -110 -32 -60 -3 -82 0 -118 17 -78 38 -162 147 -187 243 -15 53 -3 78 36 78 28 0 51 -25 70 -79 37 -107 106 -171 183 -171 39 0 50 5 87 43 47 47 75 119 75 194 0 30 6 49 20 63 26 26 45 25 71 -1z m-1245 -177 c16 -32 -1 -124 -36 -199 -86 -185 -198 -227 -370 -138 -40 21 -93 89 -129 165 -37 77 -40 115 -10 131 35 19 63 -2 89 -68 49 -121 115 -183 195 -183 32 0 45 7 81 44 44 46 68 103 80 191 10 73 19 87 57 83 21 -2 35 -11 43 -26z m1606 -1164 c123 -113 263 -269 369 -413 49 -66 97 -130 108 -142 10 -12 16 -24 13 -27 -3 -3 3 -8 12 -12 9 -3 16 -12 16 -20 0 -8 5 -14 10 -14 6 0 10 -7 10 -15 0 -8 10 -23 22 -35 12 -11 18 -20 13 -20 -5 0 2 -11 15 -25 13 -14 20 -25 16 -25 -4 0 0 -7 8 -16 9 -8 16 -22 16 -30 0 -8 4 -14 10 -14 5 0 12 -11 16 -25 3 -14 10 -25 16 -25 5 0 6 -4 3 -10 -3 -5 -2 -10 2 -10 11 0 47 -60 36 -60 -4 0 -3 -4 3 -8 14 -10 57 -82 49 -82 -3 0 1 -7 9 -16 9 -8 14 -20 11 -25 -4 -5 -1 -9 5 -9 6 0 8 -4 5 -10 -3 -5 -2 -10 3 -10 5 0 31 -46 57 -102 192 -410 169 -585 -60 -471 -68 34 -172 109 -185 134 -6 11 -15 17 -21 14 -5 -4 -8 -1 -7 7 2 7 -2 12 -8 11 -6 -1 -35 23 -65 54 -30 32 -45 51 -34 44 11 -8 0 6 -25 29 -25 24 -44 47 -43 51 2 5 -6 13 -17 19 -11 6 -20 17 -20 26 0 8 -7 17 -15 20 -8 4 -15 12 -15 20 0 8 -9 19 -20 26 -11 7 -20 16 -20 21 0 11 -141 220 -154 229 -6 4 -8 8 -4 8 4 0 -15 35 -41 78 -78 125 -186 331 -260 494 -75 167 -141 333 -141 359 0 11 31 32 93 63 50 25 98 45 105 46 8 0 55 -37 104 -82z m-795 -187 c19 -59 184 -474 193 -486 5 -5 9 -13 9 -17 2 -11 11 -40 21 -63 15 -38 23 -60 27 -78 1 -10 12 -37 22 -60 10 -23 24 -62 31 -87 7 -25 14 -51 16 -58 2 -7 4 -16 6 -20 1 -4 12 -35 25 -70 12 -35 22 -67 21 -70 -1 -4 1 -14 4 -22 12 -31 40 -165 54 -253 16 -108 18 -296 4 -349 -13 -44 -52 -78 -90 -78 -26 0 -124 58 -122 72 0 3 -20 27 -44 53 -24 26 -42 51 -39 55 3 4 -2 11 -11 14 -9 4 -14 9 -11 12 3 3 -3 14 -14 25 -11 11 -17 24 -14 28 2 5 -2 12 -11 15 -8 3 -12 10 -9 16 3 5 2 10 -2 10 -10 0 -49 70 -46 82 2 4 -1 8 -6 8 -8 0 -34 53 -32 65 1 3 -5 13 -14 21 -8 9 -13 19 -10 24 3 5 0 10 -5 12 -6 2 -12 10 -14 18 -1 8 -10 29 -19 46 -9 17 -13 34 -10 38 4 3 1 6 -6 6 -7 0 -10 4 -6 9 3 5 1 12 -5 16 -5 3 -10 15 -10 25 0 10 -4 20 -9 22 -5 2 -11 12 -13 23 -1 11 -6 22 -9 25 -3 3 -15 34 -27 70 -11 36 -33 99 -47 140 -65 184 -132 504 -148 715 l-4 60 111 3 c61 2 136 7 166 11 30 5 62 9 70 10 9 1 20 -14 27 -38z"></path><path d="M2754 1790 c-11 -4 -33 -23 -48 -41 -25 -30 -28 -39 -24 -95 15 -245 497 -740 941 -968 235 -120 478 -179 599 -146 113 32 141 162 55 257 -33 35 -52 44 -237 108 -107 37 -183 69 -285 122 -38 20 -87 45 -108 55 -200 99 -534 384 -709 605 -85 106 -124 128 -184 103z"></path></g></g></symbol>
  <symbol xmlns="http://www.w3.org/2000/svg" fill="currentColor" viewBox="0 0 24 24" id="search">
    <path d="M15.5 14h-.79l-.28-.27A6.471 6.471 0 0 0 16 9.5 6.5 6.5 0 1 0 9.5 16c1.61 0 3.09-.59 4.23-1.57l.27.28v.79l5 4.99L20.49 19l-4.99-5zm-6 0C7.01 14 5 11.99 5 9.5S7.01 5 9.5 5 14 7.01 14 9.5 11.99 14 9.5 14z"></path>
  </symbol>
  <symbol xmlns="http://www.w3.org/2000/svg" viewBox="0 0 512 512" id="play">
    <path fill="#fff" d="M133 440a35.37 35.37 0 0 1-17.5-4.67c-12-6.8-19.46-20-19.46-34.33V111c0-14.37 7.46-27.53 19.46-34.33a35.13 35.13 0 0 1 35.77.45l247.85 148.36a36 36 0 0 1 0 61l-247.89 148.4A35.5 35.5 0 0 1 133 440"></path>
  </symbol>
  <symbol xmlns="http://www.w3.org/2000/svg" viewBox="0 0 512 512" id="pause">
    <path fill="#fff" d="M208 432h-48a16 16 0 0 1-16-16V96a16 16 0 0 1 16-16h48a16 16 0 0 1 16 16v320a16 16 0 0 1-16 16m144 0h-48a16 16 0 0 1-16-16V96a16 16 0 0 1 16-16h48a16 16 0 0 1 16 16v320a16 16 0 0 1-16 16"></path>
  </symbol>
  <symbol xmlns="http://www.w3.org/2000/svg" fill="#777" viewBox="0 0 24 24" id="news">
    <path d="M12 11h6v2h-6v-2zm-6 6h12v-2H6v2zm0-4h4V7H6v6zm16-7.22v12.44c0 1.54-1.34 2.78-3 2.78H5c-1.64 0-3-1.25-3-2.78V5.78C2 4.26 3.36 3 5 3h14c1.64 0 3 1.25 3 2.78zM19.99 12V5.78c0-.42-.46-.78-1-.78H5c-.54 0-1 .36-1 .78v12.44c0 .42.46.78 1 .78h14c.54 0 1-.36 1-.78V12zM12 9h6V7h-6v2"></path>
  </symbol>
  <symbol xmlns="http://www.w3.org/2000/svg" fill="#777" viewBox="0 0 24 24" id="more">
    <path d="M12 8c1.1 0 2-.9 2-2s-.9-2-2-2-2 .9-2 2 .9 2 2 2zm0 2c-1.1 0-2 .9-2 2s.9 2 2 2 2-.9 2-2-.9-2-2-2zm0 6c-1.1 0-2 .9-2 2s.9 2 2 2 2-.9 2-2-.9-2-2-2z"></path>
  </symbol>
  <symbol xmlns="http://www.w3.org/2000/svg" fill="#70757a" stroke="#70757a" viewBox="0 0 24 24" id="lang">
    <path d="M21.75 12A9.762 9.762 0 0012 2.25a9.75 9.75 0 000 19.5A9.761 9.761 0 0021.75 12zm-1.538-.75h-3.489a16.21 16.21 0 00-1.932-7.003 8.26 8.26 0 015.421 7.003zm-9.401 8.305a14.66 14.66 0 01-2.037-6.805h6.452a14.659 14.659 0 01-2.038 6.806 1.397 1.397 0 01-2.377-.001zM8.774 11.25c.11-2.401.81-4.738 2.037-6.805a1.364 1.364 0 012.377 0 14.659 14.659 0 012.038 6.805zm.434-7.003a16.21 16.21 0 00-1.932 7.003H3.788a8.26 8.26 0 015.42-7.003zm-5.42 8.503h3.488a16.21 16.21 0 001.932 7.003 8.26 8.26 0 01-5.42-7.003zm11.004 7.003a16.21 16.21 0 001.931-7.003h3.489a8.26 8.26 0 01-5.42 7.003z"></path>
  </symbol>
  <symbol xmlns="http://www.w3.org/2000/svg" fill="#777" viewBox="0 0 24 24" id="images">
    <path d="M14 13l4 5H6l4-4 1.79 1.78L14 13zm-6.01-2.99A2 2 0 0 0 8 6a2 2 0 0 0-.01 4.01zM22 5v14a3 3 0 0 1-3 2.99H5c-1.64 0-3-1.36-3-3V5c0-1.64 1.36-3 3-3h14c1.65 0 3 1.36 3 3zm-2.01 0a1 1 0 0 0-1-1H5a1 1 0 0 0-1 1v14a1 1 0 0 0 1 1h7v-.01h7a1 1 0 0 0 1-1V5"></path>
  </symbol>
  <symbol xmlns="http://www.w3.org/2000/svg" viewBox="0 0 416 416" id="faq">
    <path fill="#394fe1" d="M 105.22,387.00 Q 78.29,398.13 51.37,409.25 Q 39.90,413.99 37.59,414.36 Q 29.84,415.58 22.51,410.73 Q 20.26,409.24 18.96,406.86 Q 16.93,403.14 16.29,399.05 Q 15.82,396.03 16.70,390.98 Q 23.39,352.65 30.08,315.22 Q 30.45,313.16 29.39,311.34 Q 0.48,261.65 0.73,205.25 Q 0.77,195.32 1.83,185.29 Q 7.78,128.97 41.19,83.69 Q 66.75,49.04 105.48,27.51 Q 148.35,3.69 197.51,1.41 Q 249.27,-1.00 295.69,20.31 Q 331.67,36.83 358.98,65.65 Q 365.75,72.79 371.97,80.85 Q 415.50,137.24 415.24,209.25 Q 415.21,219.29 414.08,229.21 Q 406.83,292.85 366.01,341.66 Q 359.62,349.30 352.39,356.29 Q 298.37,408.49 223.00,414.25 Q 160.95,418.99 106.12,387.06 A 1.04,1.01 -40.5 0 0 105.22,387.00 ZM 60.29,303.75 Q 59.88,304.34 60.23,305.01 Q 61.96,308.34 61.17,311.82 Q 60.62,314.25 60.61,314.34 Q 56.01,343.01 51.41,371.08 Q 51.20,372.39 52.43,371.88 L 96.72,353.65 Q 97.64,353.27 98.65,353.24 Q 102.27,353.13 106.13,353.37 Q 108.30,353.50 109.76,354.14 Q 111.30,354.80 113.06,355.94 Q 150.76,380.20 196.26,383.42 Q 223.54,385.35 250.06,378.81 Q 286.78,369.74 316.22,346.80 Q 324.03,340.71 331.23,333.60 Q 369.78,295.50 380.28,241.21 Q 385.28,215.35 382.75,190.50 Q 377.08,134.85 341.45,92.66 Q 334.90,84.90 327.64,78.23 Q 316.51,68.00 303.77,59.71 Q 303.29,59.40 302.75,59.54 Q 298.64,56.38 294.10,53.88 Q 263.19,36.87 228.46,32.49 Q 218.60,31.25 208.51,31.16 Q 158.71,30.74 116.16,55.88 Q 107.66,60.90 99.69,67.19 Q 46.50,109.19 34.30,176.37 Q 32.50,186.32 31.97,196.22 Q 28.85,254.31 60.29,303.75 Z"></path>
    <path fill="#f0f0f0" d="M 302.75,59.54 Q 313.21,70.31 322.06,82.44 Q 360.19,134.75 352.19,199.77 Q 347.81,235.45 331.50,265.50 Q 314.29,297.21 287.44,317.44 Q 251.88,344.22 206.68,350.60 Q 196.36,352.06 186.81,352.77 Q 137.55,356.43 95.31,331.44 Q 77.03,320.62 60.29,303.75 Q 28.85,254.31 31.97,196.22 Q 32.50,186.32 34.30,176.37 Q 46.50,109.19 99.69,67.19 Q 107.66,60.90 116.16,55.88 Q 158.71,30.74 208.51,31.16 Q 218.60,31.25 228.46,32.49 Q 263.19,36.87 294.10,53.88 Q 298.64,56.38 302.75,59.54 ZM 227.06,243.81 Q 233.05,234.79 242.57,225.86 Q 253.42,215.68 254.39,214.58 Q 266.74,200.49 270.73,182.08 Q 272.38,174.48 271.50,166.81 Q 268.55,140.95 248.44,124.56 Q 226.17,106.42 198.25,110.82 Q 188.02,112.44 179.29,116.88 Q 162.84,125.26 152.98,141.71 Q 144.63,155.62 144.17,171.53 Q 143.97,178.38 146.26,182.59 Q 150.92,191.12 162.50,189.75 Q 172.51,188.57 175.44,178.69 Q 175.97,176.88 176.16,172.90 Q 176.33,169.31 176.88,167.16 Q 181.02,150.72 195.50,144.75 Q 204.18,141.16 213.34,142.65 Q 223.22,144.26 230.15,151.13 Q 237.74,158.67 239.48,168.46 Q 241.65,180.67 231.99,191.22 Q 223.95,200.00 216.94,206.19 Q 197.33,223.48 192.77,248.41 Q 191.62,254.66 192.55,258.60 Q 193.92,264.44 198.72,267.37 Q 204.69,271.01 212.21,269.46 Q 220.32,267.79 223.11,259.31 Q 223.47,258.24 224.22,252.09 Q 224.83,247.18 227.06,243.81 ZM 223.95,301.97 A 15.96 15.96 0.0 0 0 207.99,286.01 A 15.96 15.96 0.0 0 0 192.03,301.97 A 15.96 15.96 0.0 0 0 207.99,317.93 A 15.96 15.96 0.0 0 0 223.95,301.97 Z"></path>
    <path fill="#1ce7b2" d="M 302.75,59.54 Q 303.29,59.40 303.77,59.71 Q 316.51,68.00 327.64,78.23 Q 334.90,84.90 341.45,92.66 Q 377.08,134.85 382.75,190.50 Q 385.28,215.35 380.28,241.21 Q 369.78,295.50 331.23,333.60 Q 324.03,340.71 316.22,346.80 Q 286.78,369.74 250.06,378.81 Q 223.54,385.35 196.26,383.42 Q 150.76,380.20 113.06,355.94 Q 111.30,354.80 109.76,354.14 Q 108.30,353.50 106.13,353.37 Q 102.27,353.13 98.65,353.24 Q 97.64,353.27 96.72,353.65 L 52.43,371.88 Q 51.20,372.39 51.41,371.08 Q 56.01,343.01 60.61,314.34 Q 60.62,314.25 61.17,311.82 Q 61.96,308.34 60.23,305.01 Q 59.88,304.34 60.29,303.75 Q 77.03,320.62 95.31,331.44 Q 137.55,356.43 186.81,352.77 Q 196.36,352.06 206.68,350.60 Q 251.88,344.22 287.44,317.44 Q 314.29,297.21 331.50,265.50 Q 347.81,235.45 352.19,199.77 Q 360.19,134.75 322.06,82.44 Q 313.21,70.31 302.75,59.54 Z"></path>
    <path fill="#394fe1" d="M 227.06,243.81 Q 224.83,247.18 224.22,252.09 Q 223.47,258.24 223.11,259.31 Q 220.32,267.79 212.21,269.46 Q 204.69,271.01 198.72,267.37 Q 193.92,264.44 192.55,258.60 Q 191.62,254.66 192.77,248.41 Q 197.33,223.48 216.94,206.19 Q 223.95,200.00 231.99,191.22 Q 241.65,180.67 239.48,168.46 Q 237.74,158.67 230.15,151.13 Q 223.22,144.26 213.34,142.65 Q 204.18,141.16 195.50,144.75 Q 181.02,150.72 176.88,167.16 Q 176.33,169.31 176.16,172.90 Q 175.97,176.88 175.44,178.69 Q 172.51,188.57 162.50,189.75 Q 150.92,191.12 146.26,182.59 Q 143.97,178.38 144.17,171.53 Q 144.63,155.62 152.98,141.71 Q 162.84,125.26 179.29,116.88 Q 188.02,112.44 198.25,110.82 Q 226.17,106.42 248.44,124.56 Q 268.55,140.95 271.50,166.81 Q 272.38,174.48 270.73,182.08 Q 266.74,200.49 254.39,214.58 Q 253.42,215.68 242.57,225.86 Q 233.05,234.79 227.06,243.81 Z"></path>
    <circle fill="#394fe1" cx="207.99" cy="301.97" r="15.96"></circle>
  </symbol>
  <symbol xmlns="http://www.w3.org/2000/svg" viewBox="0 0 24 24" id="close">
    <path fill="currentColor" d="M19,6.41L17.59,5L12,10.59L6.41,5L5,6.41L10.59,12L5,17.59L6.41,19L12,13.41L17.59,19L19,17.59L13.41,12L19,6.41Z"></path>
  </symbol>
  <symbol xmlns="http://www.w3.org/2000/svg" fill="#777" viewBox="0 0 24 24" id="books">
    <path d="M18 2H6a2 2 0 0 0-2 2v16c0 1.1.9 2 2 2h12a2 2 0 0 0 2-2V4a2 2 0 0 0-2-2zm0 18H6V4h2v8l2.5-1.5L13 12V4h5v16"></path>
  </symbol>
  <symbol xmlns="http://www.w3.org/2000/svg" fill="#70757a" viewBox="0 0 24 24" id="cache">
    <path d="M12 8c1.1 0 2-.9 2-2s-.9-2-2-2-2 .9-2 2 .9 2 2 2zm0 2c-1.1 0-2 .9-2 2s.9 2 2 2 2-.9 2-2-.9-2-2-2zm0 6c-1.1 0-2 .9-2 2s.9 2 2 2 2-.9 2-2-.9-2-2-2z"></path>
  </symbol>
  <symbol xmlns="http://www.w3.org/2000/svg" fill="#5f6368" viewBox="0 0 24 24" id="apps">
    <path d="M6,8c1.1,0 2,-0.9 2,-2s-0.9,-2 -2,-2 -2,0.9 -2,2 0.9,2 2,2zM12,20c1.1,0 2,-0.9 2,-2s-0.9,-2 -2,-2 -2,0.9 -2,2 0.9,2 2,2zM6,20c1.1,0 2,-0.9 2,-2s-0.9,-2 -2,-2 -2,0.9 -2,2 0.9,2 2,2zM6,14c1.1,0 2,-0.9 2,-2s-0.9,-2 -2,-2 -2,0.9 -2,2 0.9,2 2,2zM12,14c1.1,0 2,-0.9 2,-2s-0.9,-2 -2,-2 -2,0.9 -2,2 0.9,2 2,2zM16,6c0,1.1 0.9,2 2,2s2,-0.9 2,-2 -0.9,-2 -2,-2 -2,0.9 -2,2zM12,8c1.1,0 2,-0.9 2,-2s-0.9,-2 -2,-2 -2,0.9 -2,2 0.9,2 2,2zM18,14c1.1,0 2,-0.9 2,-2s-0.9,-2 -2,-2 -2,0.9 -2,2 0.9,2 2,2zM18,20c1.1,0 2,-0.9 2,-2s-0.9,-2 -2,-2 -2,0.9 -2,2 0.9,2 2,2z"></path>
  </symbol>
  <symbol xmlns="http://www.w3.org/2000/svg" viewBox="0 0 24 24" id="all">
    <path fill="#34a853" d="M10 2v2a6 6 0 0 1 6 6h2a8 8 0 0 0-8-8"></path>
    <path fill="#ea4335" d="M10 4V2a8 8 0 0 0-8 8h2c0-3.3 2.7-6 6-6"></path>
    <path fill="#fbbc04" d="M4 10H2a8 8 0 0 0 8 8v-2c-3.3 0-6-2.69-6-6"></path>
    <path fill="#4285f4" d="M22 20.59l-5.69-5.69A7.96 7.96 0 0 0 18 10h-2a6 6 0 0 1-6 6v2c1.85 0 3.52-.64 4.88-1.68l5.69 5.69L22 20.59"></path>
  </symbol>
  <symbol xmlns="http://www.w3.org/2000/svg" viewBox="0 0 36 36" id="summary">
    <path fill="#4285f4" d="M34.347 16.893l-8.899-3.294-3.323-10.891c-.128-.42-.517-.708-.956-.708-.439 0-.828.288-.956.708l-3.322 10.891-8.9 3.294c-.393.146-.653.519-.653.938 0 .418.26.793.653.938l8.895 3.293 3.324 11.223c.126.424.516.715.959.715.442 0 .833-.291.959-.716l3.324-11.223 8.896-3.293c.391-.144.652-.518.652-.937 0-.418-.261-.792-.653-.938z"></path>
    <path fill="#4285f4" d="M14.347 27.894l-2.314-.856-.9-3.3c-.118-.436-.513-.738-.964-.738-.451 0-.846.302-.965.737l-.9 3.3-2.313.856c-.393.145-.653.52-.653.938 0 .418.26.793.653.938l2.301.853.907 3.622c.112.444.511.756.97.756.459 0 .858-.312.97-.757l.907-3.622 2.301-.853c.393-.144.653-.519.653-.937 0-.418-.26-.793-.653-.937zM10.009 6.231l-2.364-.875-.876-2.365c-.145-.393-.519-.653-.938-.653-.418 0-.792.26-.938.653l-.875 2.365-2.365.875c-.393.146-.653.52-.653.938 0 .418.26.793.653.938l2.365.875.875 2.365c.146.393.52.653.938.653.418 0 .792-.26.938-.653l.875-2.365 2.365-.875c.393-.146.653-.52.653-.938 0-.418-.26-.792-.653-.938z"></path>
  </symbol>
  <symbol xmlns="http://www.w3.org/2000/svg" viewBox="0 0 442.9 650" id="easter-egg-1">
    <path fill="#f6d7a9" d="m442.9,390.1c0,185.3-99.1,259.9-221.4,259.9S0,575.4,0,390.1,99.1,0,221.4,0s221.4,204.9,221.4,390.1Z"></path>
    <path fill="#5dbdaa" d="m440.6,343.6l-1.7-2-55.5,64.7-55.5-64.7-55.5,64.7-55.5-64.7-55.5,64.7-55.5-64.7-55.5,64.7L1.8,349.8c1.1-13.9,2.7-27.8,4.9-41.6l43.7,50.9,55.5-64.7,55.5,64.7,55.5-64.7,55.5,64.7,55.5-64.7,55.5,64.7,51.4-59.9c2.5,14.8,4.4,29.6,5.8,44.5Z"></path>
    <path fill="#5dbdaa" d="m427.2,261.2l-50,58.3-55.5-64.7-55.5,64.7-55.5-64.7-55.5,64.7-55.5-64.7-55.5,64.7-32.7-38.2c2.5-12.6,5.4-25,8.6-37.2l24.1,28.1,55.5-64.7,55.5,64.7,55.5-64.7,55.5,64.7,55.5-64.7,55.5,64.7,40.3-47c3.6,11.8,6.8,23.9,9.7,36.1Z"></path>
  </symbol>
  <symbol xmlns="http://www.w3.org/2000/svg" viewBox="513.7 17.6 418.9 614.6" id="easter-egg-2">
    <path fill="#f9bfcb" d="m932.6,386.6c0,175.2-93.8,245.8-209.4,245.8s-209.4-70.6-209.4-245.8S607.5,17.6,723.1,17.6s209.4,193.7,209.4,369Z"></path>
    <path fill="#82ab83" d="m923.4,284c-1.7-.2-3.5-.3-5.4-.3-14.7,0-22.1,7-29.2,13.7-6.8,6.4-13.2,12.5-26.2,12.5s-19.4-6.1-26.2-12.5c-7.1-6.7-14.5-13.7-29.2-13.7s-22.1,7-29.2,13.7c-6.8,6.4-13.2,12.5-26.2,12.5s-19.4-6.1-26.2-12.5c-7.1-6.7-14.5-13.7-29.2-13.7s-22.1,7-29.2,13.7c-6.8,6.4-13.2,12.5-26.2,12.5s-19.4-6.1-26.2-12.5c-7.1-6.7-14.5-13.7-29.2-13.7s-22.1,7-29.2,13.7c-6.8,6.4-13.2,12.5-26.2,12.5s-6.8-.5-9.6-1.3c3.2-22.3,7.8-44.3,13.5-65.8,12.2-1.1,18.8-7.4,25.3-13.5,6.8-6.4,13.2-12.5,26.2-12.5s19.4,6.1,26.2,12.5c7.1,6.7,14.5,13.7,29.2,13.7s22.1-7,29.2-13.7c6.8-6.4,13.2-12.5,26.2-12.5s19.4,6.1,26.2,12.5c7.1,6.7,14.5,13.7,29.2,13.7s22.1-7,29.2-13.7c6.8-6.4,13.2-12.5,26.2-12.5s19.4,6.1,26.2,12.5c7.1,6.7,14.5,13.7,29.2,13.7s22.1-7,29.2-13.7c4.5-4.3,8.9-8.4,15.2-10.7,6.7,21.2,12.3,43.1,16.5,65.4Z"></path>
    <path fill="#82ab83" d="m932.6,395.8c-.7,24.2-3.2,46.2-7.4,66.3-2.3-.5-4.9-.7-7.7-.7-14.7,0-22.1,7-29.2,13.7-6.8,6.4-13.2,12.5-26.2,12.5s-19.4-6.1-26.2-12.5c-7.1-6.7-14.5-13.7-29.2-13.7s-22.1,7-29.2,13.7c-6.8,6.4-13.2,12.5-26.2,12.5s-19.4-6.1-26.2-12.5c-7.1-6.7-14.5-13.7-29.2-13.7s-22.1,7-29.2,13.7c-6.8,6.4-13.2,12.5-26.2,12.5s-19.4-6.1-26.2-12.5c-7.1-6.7-14.5-13.7-29.2-13.7s-22.1,7-29.2,13.7c-6.8,6.4-13.2,12.5-26.2,12.5s-.8,0-1.2,0h0c-6.5-21.3-10.9-45.1-12.8-71.8,3.9,1.6,8.4,2.6,14.1,2.6,14.7,0,22.1-7,29.2-13.7,6.8-6.4,13.2-12.5,26.2-12.5s19.4,6.1,26.2,12.5c7.1,6.7,14.5,13.7,29.2,13.7s22.1-7,29.2-13.7c6.8-6.4,13.2-12.5,26.2-12.5s19.4,6.1,26.2,12.5c7.1,6.7,14.5,13.7,29.2,13.7s22.1-7,29.2-13.7c6.8-6.4,13.2-12.5,26.2-12.5s19.4,6.1,26.2,12.5c7.1,6.7,14.5,13.7,29.2,13.7s22.1-7,29.2-13.7c6.8-6.4,13.2-12.5,26.2-12.5s11.1,1.4,15.1,3.6Z"></path>
  </symbol>
  <symbol xmlns="http://www.w3.org/2000/svg" viewBox="12 680.4 418.9 614.8" id="easter-egg-3">
    <path fill="#acdee5" d="m430.9,1049.4c0,175.2-93.8,245.8-209.4,245.8S12,1224.6,12,1049.4s93.8-369,209.4-369,209.4,193.7,209.4,369Z"></path>
    <circle fill="#02aeb6" cx="150.5" cy="794.3" r="34.9"></circle>
    <path fill="#02aeb6" d="m265.6,721.8c0,19.3,15.6,35,34.8,35,12.4,0,23.2-6.4,29.5-16.1-16.4-19-34.2-34.3-53.1-44.5-6.9,6.4-11.2,15.4-11.2,25.5Z"></path>
    <circle fill="#02aeb6" cx="300.5" cy="902" r="34.9"></circle>
    <circle fill="#02aeb6" cx="66" cy="996.9" r="34.9"></circle>
    <circle fill="#02aeb6" cx="185.9" cy="1107.3" r="34.9"></circle>
    <circle fill="#02aeb6" cx="370.4" cy="1107.3" r="34.9"></circle>
    <path fill="#02aeb6" d="m162.6,1261.2c-12.9,0-24.1,7-30.2,17.4,20.1,8.7,42,13.9,65.1,16.1-.8-18.6-16.1-33.5-34.9-33.5Z"></path>
  </symbol>
  <symbol xmlns="http://www.w3.org/2000/svg" viewBox="-480 -466.815 2160 2160" id="x">
    <circle fill="#000" cx="600" cy="613.185" r="1080"></circle>
    <path fill="#fff" d="M306.615 79.694H144.011L892.476 1150.3h162.604ZM0 0h357.328l309.814 450.883L1055.03 0h105.86L714.15 519.295 1200 1226.37H842.672L515.493 750.215 105.866 1226.37H0l468.485-544.568Z"></path>
  </symbol>
  <symbol xmlns="http://www.w3.org/2000/svg" viewBox="0 0 256 256" id="fb">
    <path fill="#1877F2" d="M256 128C256 57.308 198.692 0 128 0S0 57.308 0 128c0 63.888 46.808 116.843 108 126.445V165H75.5v-37H108V99.8c0-32.08 19.11-49.8 48.348-49.8C170.352 50 185 52.5 185 52.5V84h-16.14C152.959 84 148 93.867 148 103.99V128h35.5l-5.675 37H148v89.445c61.192-9.602 108-62.556 108-126.445"></path>
    <path fill="#FFF" d="m177.825 165l5.675-37H148v-24.01C148 93.866 152.959 84 168.86 84H185V52.5S170.352 50 156.347 50C127.11 50 108 67.72 108 99.8V128H75.5v37H108v89.445A129 129 0 0 0 128 256a129 129 0 0 0 20-1.555V165z"></path>
  </symbol>
  <symbol xmlns="http://www.w3.org/2000/svg" viewBox="0 0 36 36" id="launch">
    <path fill="#A0041E" d="M1 17l8-7 16 1 1 16-7 8s.001-5.999-6-12-12-6-12-6z"></path>
    <path fill="#FFAC33" d="M.973 35s-.036-7.979 2.985-11S15 21.187 15 21.187 14.999 29 11.999 32c-3 3-11.026 3-11.026 3z"></path>
    <circle fill="#FFCC4D" cx="8.999" cy="27" r="4"></circle>
    <path fill="#55ACEE" d="M35.999 0s-10 0-22 10c-6 5-6 14-4 16s11 2 16-4c10-12 10-22 10-22z"></path>
    <path d="M26.999 5c-1.623 0-3.013.971-3.641 2.36.502-.227 1.055-.36 1.641-.36 2.209 0 4 1.791 4 4 0 .586-.133 1.139-.359 1.64 1.389-.627 2.359-2.017 2.359-3.64 0-2.209-1.791-4-4-4z"></path>
    <path fill="#A0041E" d="M8 28s0-4 1-5 13.001-10.999 14-10-9.001 13-10.001 14S8 28 8 28z"></path>
  </symbol>
  <symbol xmlns="http://www.w3.org/2000/svg" xmlns:xlink="http://www.w3.org/1999/xlink" aria-hidden="true" role="img" preserveAspectRatio="xMidYMid meet" viewBox="0 0 36 36" id="status">
    <path fill="#0f9d58" d="M26.093 4.612c-.498.498-.629.839-.728 1.029c-.66 1.266-1.455 1.676-2.78.351c-.13-.13-4.087-4.267-4.741-5.017c-.427-.49-1.081-.64-1.584-.262c-.38.286-4.035 3.273-5.035 4.507c-.774.955-.8 2.134-.079 2.856c.326.326.727.449 1.151.578c.552.169 1.763.068 2.47.775c1.133 1.133.54 2.924-.917 4.421c-1.497 1.457-3.288 2.05-4.421.917c-.708-.708-.606-1.918-.775-2.47c-.129-.424-.252-.824-.578-1.151c-.721-.721-1.9-.694-2.856.079c-1.235 1-4.221 4.655-4.507 5.035c-.379.503-.228 1.156.262 1.584c.75.654 4.887 4.611 5.017 4.741c1.324 1.324.915 2.12-.351 2.78c-.19.099-.53.229-1.029.728a3.744 3.744 0 0 0 5.295 5.295c.498-.498.629-.839.728-1.029c.66-1.266 1.455-1.676 2.78-.351c.13.13 4.087 4.267 4.741 5.017c.427.49 1.081.64 1.584.262c.38-.286 4.035-3.273 5.035-4.507c.774-.955.8-2.134.079-2.856c-.326-.326-.727-.449-1.151-.578c-.552-.169-1.763-.068-2.47-.775c-1.133-1.133-.54-2.924.917-4.421c1.497-1.457 3.288-2.05 4.421-.917c.708.708.606 1.918.775 2.47c.129.424.252.824.578 1.151c.721.721 1.9.694 2.856-.079c1.235-1 4.221-4.655 4.507-5.035c.379-.503.228-1.156-.262-1.584c-.75-.654-4.887-4.611-5.017-4.741c-1.324-1.324-.915-2.12.351-2.78c.19-.099.53-.229 1.029-.728a3.744 3.744 0 0 0-5.295-5.295z"></path>
  </symbol>
  <symbol xmlns="http://www.w3.org/2000/svg" xmlns:xlink="http://www.w3.org/1999/xlink" aria-hidden="true" role="img" preserveAspectRatio="xMidYMid meet" viewBox="0 0 36 36" id="creator">
    <path fill="#E1E8ED" d="M36 36v-2a6 6 0 0 0-6-6H14a6 6 0 0 0-6 6v2h28z"></path>
    <path fill="#EA596E" d="M29.799 28.127c0 1.36-3.491 2.434-7.799 2.434c-4.307 0-7.799-1.06-7.799-2.42c0-.062.015-.141.029-.141h-.734l-.705.099l.006 1.017c.114 2.405 4.186 3.392 9.203 3.392c4.996 0 9.054-1.009 9.2-3.414l.014-.974c0 .002-1.415-.055-1.415.007z"></path>
    <ellipse fill="#BE1931" cx="22" cy="28.07" rx="9.214" ry="3.439"></ellipse>
    <path fill="#292F33" d="M22 30.533c-4.307 0-7.799-1.103-7.799-2.463s3.492-2.463 7.799-2.463s7.799 1.103 7.799 2.463s-3.492 2.463-7.799 2.463z"></path>
    <path fill="#FFDC5D" d="M17.64 27.937c1.744 1.267 2.848 1.511 4.36 1.511c1.511 0 2.616-.245 4.36-1.511v-3.811h-8.72v3.811z"></path>
    <path fill="#F9CA55" d="M17.632 25.973c1.216 1.374 2.724 1.746 4.364 1.746c1.639 0 3.147-.372 4.364-1.746v-3.491h-8.728v3.491z"></path>
    <path fill="#FFAC33" d="M25.597 3.516c-1.925-.623-6.455-.453-7.588 1.019c-2.944.057-6.398 2.718-6.851 6.228c-.448 3.475.551 5.088.906 7.701c.403 2.96 2.067 3.907 3.397 4.303c1.914 2.529 3.949 2.421 7.366 2.421c6.672 0 9.85-4.464 10.131-12.047c.17-4.585-2.521-8.059-7.361-9.625z"></path>
    <path fill="#FFDC5D" d="M29.413 13.466c-.646-.894-1.472-1.614-3.284-1.868c.68.311 1.331 1.387 1.416 1.982c.085.595.17 1.076-.368.481c-2.155-2.382-4.502-1.444-6.827-2.899c-1.624-1.016-2.119-2.141-2.119-2.141s-.198 1.5-2.661 3.029c-.714.443-1.566 1.43-2.038 2.888c-.34 1.048-.234 1.982-.234 3.578c0 4.66 3.841 8.578 8.578 8.578s8.578-3.953 8.578-8.578c-.001-2.898-.305-4.031-1.041-5.05z"></path>
    <path fill="#C1694F" d="M22.827 20.9h-1.906a.477.477 0 1 1 0-.954h1.906a.477.477 0 1 1 0 .954z"></path>
    <path fill="#662113" d="M18.062 17.564a.953.953 0 0 1-.953-.953v-.953a.953.953 0 0 1 1.906 0v.953a.953.953 0 0 1-.953.953zm7.625 0a.953.953 0 0 1-.953-.953v-.953a.953.953 0 0 1 1.906 0v.953a.953.953 0 0 1-.953.953z"></path>
    <path fill="#C1694F" d="M22 24.88c-2.754 0-3.6-.705-3.741-.848a.655.655 0 0 1 .902-.95c.052.037.721.487 2.839.487c2.2 0 2.836-.485 2.842-.49a.638.638 0 0 1 .913.015a.669.669 0 0 1-.014.938c-.141.143-.987.848-3.741.848"></path>
    <path fill="#55ACEE" d="M33 33v3h3v-2c0-.341-.035-.674-.09-1H33z"></path>
    <path fill="#FFCC4D" d="M34 34h2v2h-2z"></path>
    <path fill="#E1E8ED" d="M24.004 36c-1.198-5.146-6.048-9-11.857-9C6.338 27 1.488 30.854.29 36h23.714z"></path>
    <path fill="#292F33" d="M22.669 36c-1.173-4.464-5.432-7.778-10.522-7.778S2.798 31.536 1.625 36h21.044z"></path>
    <path fill="#FFAC33" d="M21.637 36c-1.148-3.937-4.956-6.833-9.49-6.833S3.805 32.063 2.657 36h18.98z"></path>
    <path fill="#FFDC5D" d="M18.195 35.048l.103-.063c.769-.468.928-1.538.301-2.182a8.437 8.437 0 0 0-1.566-1.267a8.174 8.174 0 0 0-1.785-.827c-.828-.273-1.711.233-1.866 1.091c-.119.661.224 1.346.855 1.578a5.786 5.786 0 0 1 2.231 1.474c.443.472 1.174.533 1.727.196z"></path>
    <path fill="#9266CC" d="M6.344 14.262l-1.542-.571l-.6-2.2a.667.667 0 0 0-1.286.001l-.6 2.2l-1.542.571a.665.665 0 0 0 0 1.25l1.534.568l.604 2.415a.667.667 0 0 0 1.294-.001l.604-2.415l1.534-.568a.665.665 0 0 0 0-1.25z"></path>
    <path fill="#5DADEC" d="M11.28 4.634l-2.61-.966l-.966-2.61a1.104 1.104 0 0 0-2.07 0l-.966 2.61l-2.61.966a1.104 1.104 0 0 0 0 2.07l2.61.966l.966 2.61a1.103 1.103 0 0 0 2.07 0l.966-2.61l2.61-.966a1.104 1.104 0 0 0 0-2.07z"></path>
  </symbol>
  <symbol xmlns="http://www.w3.org/2000/svg" viewBox="0 0 24 24" id="light">
    <path fill="#5f6368" d="M12 15q1.25 0 2.125-.875T15 12t-.875-2.125T12 9t-2.125.875T9 12t.875 2.125T12 15m0 2q-2.075 0-3.537-1.463T7 12t1.463-3.537T12 7t3.538 1.463T17 12t-1.463 3.538T12 17M2 13q-.425 0-.712-.288T1 12t.288-.712T2 11h2q.425 0 .713.288T5 12t-.288.713T4 13zm18 0q-.425 0-.712-.288T19 12t.288-.712T20 11h2q.425 0 .713.288T23 12t-.288.713T22 13zm-8-8q-.425 0-.712-.288T11 4V2q0-.425.288-.712T12 1t.713.288T13 2v2q0 .425-.288.713T12 5m0 18q-.425 0-.712-.288T11 22v-2q0-.425.288-.712T12 19t.713.288T13 20v2q0 .425-.288.713T12 23M5.65 7.05L4.575 6q-.3-.275-.288-.7t.288-.725q.3-.3.725-.3t.7.3L7.05 5.65q.275.3.275.7t-.275.7t-.687.288t-.713-.288M18 19.425l-1.05-1.075q-.275-.3-.275-.712t.275-.688q.275-.3.688-.287t.712.287L19.425 18q.3.275.288.7t-.288.725q-.3.3-.725.3t-.7-.3M16.95 7.05q-.3-.275-.288-.687t.288-.713L18 4.575q.275-.3.7-.288t.725.288q.3.3.3.725t-.3.7L18.35 7.05q-.3.275-.7.275t-.7-.275M4.575 19.425q-.3-.3-.3-.725t.3-.7l1.075-1.05q.3-.275.712-.275t.688.275q.3.275.288.688t-.288.712L6 19.425q-.275.3-.7.288t-.725-.288M12 12"></path>
  </symbol>
  <symbol xmlns="http://www.w3.org/2000/svg" viewBox="0 0 24 24" id="dark">
    <path fill="#5f6368" d="M12 21q-3.775 0-6.387-2.613T3 12q0-3.45 2.25-5.988T11 3.05q.325-.05.575.088t.4.362t.163.525t-.188.575q-.425.65-.638 1.375T11.1 7.5q0 2.25 1.575 3.825T16.5 12.9q.775 0 1.538-.225t1.362-.625q.275-.175.563-.162t.512.137q.25.125.388.375t.087.6q-.35 3.45-2.937 5.725T12 21m0-2q2.2 0 3.95-1.213t2.55-3.162q-.5.125-1 .2t-1 .075q-3.075 0-5.238-2.163T9.1 7.5q0-.5.075-1t.2-1q-1.95.8-3.163 2.55T5 12q0 2.9 2.05 4.95T12 19m-.25-6.75"></path>
  </symbol>
  <symbol xmlns="http://www.w3.org/2000/svg" viewBox="0 0 24 24" id="voice">
    <path d="m12 15c1.66 0 3-1.31 3-2.97v-7.02c0-1.66-1.34-3.01-3-3.01s-3 1.34-3 3.01v7.02c0 1.66 1.34 2.97 3 2.97z" fill="#4285f4"></path>
    <path d="m11 18.08h2v3.92h-2z" fill="#34a853"></path>
    <path d="m7.05 16.87c-1.27-1.33-2.05-2.83-2.05-4.87h2c0 1.45 0.56 2.42 1.47 3.38v0.32l-1.15 1.18z" fill="#f4b400"></path>
    <path d="m12 16.93a4.97 5.25 0 0 1 -3.54 -1.55l-1.41 1.49c1.26 1.34 3.02 2.13 4.95 2.13 3.87 0 6.99-2.92 6.99-7h-1.99c0 2.92-2.24 4.93-5 4.93z" fill="#ea4335"></path>
  </symbol>
  <symbol xmlns="http://www.w3.org/2000/svg" fill="#777" viewBox="0 0 24 24" id="videos">
    <path d="M10 16.5l6-4.5-6-4.5v9zM5 20h14a1 1 0 0 0 1-1V5a1 1 0 0 0-1-1H5a1 1 0 0 0-1 1v14a1 1 0 0 0 1 1zm14.5 2H5a3 3 0 0 1-3-3V4.4A2.4 2.4 0 0 1 4.4 2h15.2A2.4 2.4 0 0 1 22 4.4v15.1a2.5 2.5 0 0 1-2.5 2.5"></path>
  </symbol>
  <symbol xmlns="http://www.w3.org/2000/svg" viewBox="0 0 24 24" id="sound-off">
    <path fill="#fff" d="m19.8 22.6l-3.025-3.025q-.625.4-1.325.688t-1.45.462v-2.05q.35-.125.688-.25t.637-.3L12 14.8V20l-5-5H3V9h3.2L1.4 4.2l1.4-1.4l18.4 18.4zm-.2-5.8l-1.45-1.45q.425-.775.638-1.625t.212-1.75q0-2.35-1.375-4.2T14 5.275v-2.05q3.1.7 5.05 3.138T21 11.975q0 1.325-.363 2.55T19.6 16.8m-3.35-3.35L14 11.2V7.95q1.175.55 1.838 1.65T16.5 12q0 .375-.062.738t-.188.712M12 9.2L9.4 6.6L12 4z"></path>
  </symbol>
  <symbol xmlns="http://www.w3.org/2000/svg" viewBox="0 0 24 24" id="sound-on">
    <path fill="#fff" d="M14 3.23v2.06c2.89.86 5 3.54 5 6.71s-2.11 5.84-5 6.7v2.07c4-.91 7-4.49 7-8.77s-3-7.86-7-8.77M16.5 12c0-1.77-1-3.29-2.5-4.03V16c1.5-.71 2.5-2.24 2.5-4M3 9v6h4l5 5V4L7 9z"></path>
  </symbol>
  <symbol xmlns="http://www.w3.org/2000/svg" viewBox="0 0 24 24" id="share">
    <path fill="currentColor" d="M18,16.08C17.24,16.08 16.56,16.38 16.04,16.85L8.91,12.7C8.96,12.47 9,12.24 9,12C9,11.76 8.96,11.53 8.91,11.3L15.96,7.19C16.5,7.69 17.21,8 18,8A3,3 0 0,0 21,5A3,3 0 0,0 18,2A3,3 0 0,0 15,5C15,5.24 15.04,5.47 15.09,5.7L8.04,9.81C7.5,9.31 6.79,9 6,9A3,3 0 0,0 3,12A3,3 0 0,0 6,15C6.79,15 7.5,14.69 8.04,14.19L15.16,18.34C15.11,18.55 15.08,18.77 15.08,19C15.08,20.61 16.39,21.91 18,21.91C19.61,21.91 20.92,20.61 20.92,19A2.92,2.92 0 0,0 18,16.08Z"></path>
  </symbol>
</svg>
